<svg width="29" height="25" viewBox="0 0 29 25" fill="none" xmlns="http://www.w3.org/2000/svg">
<path id="Vector" d="M17.3588 24.0078L29 12.2927L17.3588 0.577624C17.2537 0.439403 17.1201 0.325411 16.9671 0.243364C16.8142 0.161318 16.6454 0.113133 16.4722 0.102071C16.299 0.0910083 16.1255 0.117328 15.9633 0.179247C15.8012 0.241166 15.6542 0.337238 15.5324 0.460961C15.4106 0.584684 15.3167 0.733168 15.2572 0.896362C15.1977 1.05956 15.1739 1.23365 15.1874 1.40685C15.2009 1.58006 15.2515 1.74833 15.3356 1.90029C15.4197 2.05224 15.5355 2.18432 15.675 2.28759L24.3847 11.08L1.21136 11.08C0.890087 11.08 0.581974 11.2078 0.354799 11.4352C0.127625 11.6626 -1.76734e-06 11.9711 -1.76354e-06 12.2927C-1.75975e-06 12.6144 0.127625 12.9228 0.354799 13.1503C0.581974 13.3777 0.890087 13.5055 1.21136 13.5055L24.3847 13.5055L15.675 22.2979C15.4485 22.5262 15.3219 22.8353 15.3231 23.1571C15.3242 23.479 15.453 23.7871 15.6811 24.0139C15.9092 24.2407 16.2179 24.3674 16.5394 24.3663C16.8608 24.3651 17.1687 24.2362 17.3952 24.0078L17.3588 24.0078Z" fill="white"/>
</svg>
