<svg width="35" height="22" viewBox="0 0 35 22" fill="none" xmlns="http://www.w3.org/2000/svg">
<path id="Behance" d="M10.4577 0C11.4684 0 12.3779 0.0875145 13.2119 0.265975C14.0407 0.442719 14.7476 0.734433 15.3448 1.13768C15.9334 1.54094 16.3933 2.07632 16.7244 2.74897C17.0453 3.41305 17.2049 4.24358 17.2049 5.22511C17.2049 6.28901 16.9647 7.17788 16.4825 7.88657C15.9969 8.59698 15.2813 9.17869 14.3272 9.62827C15.6262 10.0041 16.5889 10.6613 17.2272 11.5948C17.869 12.5368 18.183 13.6642 18.183 14.9855C18.183 16.058 17.9788 16.9795 17.5687 17.7534C17.1735 18.5157 16.6001 19.1715 15.8973 19.6649C15.1694 20.1719 14.3562 20.5438 13.4967 20.7632C12.5955 20.9997 11.6675 21.1185 10.7357 21.1167H0.5V0H10.4577ZM9.85544 8.53177C10.6791 8.53177 11.3621 8.33615 11.9009 7.93976C12.4362 7.54852 12.6954 6.90332 12.6954 6.0196C12.6954 5.52884 12.6078 5.12387 12.4362 4.80641C12.2691 4.50101 12.0216 4.24706 11.7207 4.07198C11.4057 3.88516 11.058 3.75996 10.6963 3.70305C10.3019 3.6295 9.90135 3.59445 9.50023 3.59838H5.15026V8.53177H9.85544ZM10.1145 17.5217C10.5727 17.5217 11.0086 17.4822 11.4187 17.3896C11.8322 17.3003 12.1994 17.1562 12.5117 16.9417C12.8241 16.7358 13.0814 16.4561 13.2668 16.0992C13.4538 15.7457 13.5448 15.2841 13.5448 14.7298C13.5448 13.6419 13.2376 12.868 12.6301 12.3996C12.021 11.9362 11.2042 11.7063 10.2038 11.7063H5.15026V17.5234L10.1145 17.5217ZM24.8118 17.4514C25.4415 18.0657 26.3493 18.3745 27.5299 18.3745C28.3758 18.3745 29.1068 18.16 29.7229 17.7345C30.3303 17.3072 30.701 16.8508 30.8434 16.3789H34.5413C33.9476 18.2184 33.0467 19.5328 31.8146 20.3239C30.598 21.1184 29.1171 21.513 27.3874 21.513C26.1828 21.513 25.0983 21.3191 24.1271 20.9348C23.1949 20.5717 22.3524 20.0109 21.6578 19.2909C20.9747 18.5541 20.4466 17.6875 20.1049 16.7427C19.7293 15.6978 19.5433 14.5943 19.5558 13.484C19.5558 12.3412 19.7463 11.2722 20.1203 10.2855C20.4754 9.33172 21.0207 8.4601 21.723 7.72355C22.418 7.00285 23.2417 6.43486 24.2009 6.01789C25.2096 5.59366 26.295 5.38219 27.3892 5.39671C28.683 5.39671 29.8138 5.64724 30.785 6.15173C31.7269 6.63331 32.5436 7.32777 33.1702 8.18C33.7931 9.02597 34.2376 9.99549 34.5138 11.0817C34.7901 12.1662 34.8862 13.2987 34.8073 14.4845H23.7719C23.7736 15.6925 24.1803 16.837 24.8118 17.4514ZM29.6371 9.41893C29.1377 8.86639 28.2935 8.56781 27.2605 8.56781C26.5895 8.56781 26.0353 8.67935 25.5891 8.90928C25.1812 9.11533 24.8192 9.40195 24.5252 9.75182C24.267 10.0695 24.0755 10.436 23.9624 10.8294C23.8634 11.1575 23.7995 11.4952 23.7719 11.8367H30.6049C30.5053 10.766 30.1381 9.9749 29.6371 9.41893ZM22.9139 1.41739H31.4749V3.50228H22.9139V1.41739Z" fill="#1E3746"/>
</svg>
