<svg width="28" height="28" viewBox="0 0 28 28" fill="none" xmlns="http://www.w3.org/2000/svg">
<g id="Group">
<path id="Vector" d="M19.9787 -0.00195312H7.61471C3.41596 -0.00195312 0 3.41417 0 7.61292V19.9769C0 24.1758 3.41596 27.5918 7.61471 27.5918H19.9787C24.1778 27.5918 27.5938 24.1757 27.5938 19.9769V7.61292C27.5939 3.41417 24.1778 -0.00195312 19.9787 -0.00195312ZM25.1457 19.9769C25.1457 22.8259 22.8278 25.1435 19.9789 25.1435H7.61471C4.76593 25.1437 2.44825 22.8259 2.44825 19.9769V7.61292C2.44825 4.76414 4.76593 2.4463 7.61471 2.4463H19.9787C22.8277 2.4463 25.1455 4.76414 25.1455 7.61292V19.9769H25.1457Z" fill="#EBFF6B"/>
<path id="Vector_2" d="M13.7977 6.68164C9.87708 6.68164 6.6875 9.87122 6.6875 13.7919C6.6875 17.7123 9.87708 20.9017 13.7977 20.9017C17.7183 20.9017 20.9079 17.7123 20.9079 13.7919C20.9079 9.87122 17.7183 6.68164 13.7977 6.68164ZM13.7977 18.4533C11.2272 18.4533 9.13575 16.3622 9.13575 13.7917C9.13575 11.221 11.227 9.12973 13.7977 9.12973C16.3684 9.12973 18.4597 11.221 18.4597 13.7917C18.4597 16.3622 16.3682 18.4533 13.7977 18.4533Z" fill="#EBFF6B"/>
<path id="Vector_3" d="M21.2055 4.61133C20.7338 4.61133 20.2705 4.80229 19.9373 5.13689C19.6026 5.46985 19.4102 5.93338 19.4102 6.40671C19.4102 6.87857 19.6028 7.34194 19.9373 7.67654C20.2703 8.0095 20.7338 8.2021 21.2055 8.2021C21.6789 8.2021 22.1408 8.0095 22.4754 7.67654C22.81 7.34194 23.0009 6.87841 23.0009 6.40671C23.0009 5.93338 22.81 5.46985 22.4754 5.13689C22.1424 4.80229 21.6789 4.61133 21.2055 4.61133Z" fill="#EBFF6B"/>
</g>
</svg>
