<svg width="29" height="28" viewBox="0 0 29 28" fill="none" xmlns="http://www.w3.org/2000/svg">
<g id="Group">
<path id="Vector" d="M20.4924 0.0976562H8.12839C3.92964 0.0976562 0.513672 3.51378 0.513672 7.71253V20.0765C0.513672 24.2754 3.92964 27.6914 8.12839 27.6914H20.4924C24.6915 27.6914 28.1074 24.2753 28.1074 20.0765V7.71253C28.1076 3.51378 24.6915 0.0976562 20.4924 0.0976562ZM25.6593 20.0765C25.6593 22.9255 23.3415 25.2432 20.4925 25.2432H8.12839C5.2796 25.2433 2.96192 22.9255 2.96192 20.0765V7.71253C2.96192 4.86375 5.2796 2.54591 8.12839 2.54591H20.4924C23.3413 2.54591 25.6592 4.86375 25.6592 7.71253V20.0765H25.6593Z" fill="#11212B"/>
<path id="Vector_2" d="M14.3114 6.78125C10.3908 6.78125 7.20117 9.97083 7.20117 13.8915C7.20117 17.8119 10.3908 21.0013 14.3114 21.0013C18.232 21.0013 21.4216 17.8119 21.4216 13.8915C21.4216 9.97083 18.232 6.78125 14.3114 6.78125ZM14.3114 18.5529C11.7409 18.5529 9.64942 16.4618 9.64942 13.8913C9.64942 11.3206 11.7407 9.22934 14.3114 9.22934C16.882 9.22934 18.9733 11.3206 18.9733 13.8913C18.9733 16.4618 16.8819 18.5529 14.3114 18.5529Z" fill="#11212B"/>
<path id="Vector_3" d="M21.7192 4.71094C21.2475 4.71094 20.7841 4.9019 20.451 5.2365C20.1163 5.56946 19.9238 6.03299 19.9238 6.50632C19.9238 6.97818 20.1164 7.44155 20.451 7.77615C20.784 8.10911 21.2475 8.30171 21.7192 8.30171C22.1925 8.30171 22.6544 8.10911 22.989 7.77615C23.3236 7.44155 23.5146 6.97802 23.5146 6.50632C23.5146 6.03299 23.3236 5.56946 22.989 5.2365C22.6561 4.9019 22.1925 4.71094 21.7192 4.71094Z" fill="#11212B"/>
</g>
</svg>
