<svg width="32" height="33" viewBox="0 0 32 33" fill="none" xmlns="http://www.w3.org/2000/svg">
<g id="logos" clip-path="url(#clip0_1764_14081)">
<path id="Vector" d="M16 0.708252C11.658 0.708252 11.112 0.728252 9.406 0.804252C7.7 0.884252 6.538 1.15225 5.52 1.54825C4.45169 1.9489 3.48428 2.57905 2.686 3.39425C1.8708 4.19253 1.24065 5.15994 0.84 6.22825C0.444 7.24425 0.174 8.40825 0.096 10.1083C0.02 11.8183 0 12.3623 0 16.7103C0 21.0543 0.02 21.5983 0.096 23.3043C0.176 25.0083 0.444 26.1703 0.84 27.1883C1.25 28.2403 1.796 29.1323 2.686 30.0223C3.574 30.9123 4.466 31.4603 5.518 31.8683C6.538 32.2643 7.698 32.5343 9.402 32.6123C11.11 32.6883 11.654 32.7083 16 32.7083C20.346 32.7083 20.888 32.6883 22.596 32.6123C24.298 32.5323 25.464 32.2643 26.482 31.8683C27.5496 31.4673 28.5163 30.8372 29.314 30.0223C30.204 29.1323 30.75 28.2403 31.16 27.1883C31.554 26.1703 31.824 25.0083 31.904 23.3043C31.98 21.5983 32 21.0543 32 16.7083C32 12.3623 31.98 11.8183 31.904 10.1103C31.824 8.40825 31.554 7.24425 31.16 6.22825C30.7593 5.15994 30.1292 4.19253 29.314 3.39425C28.5157 2.57905 27.5483 1.9489 26.48 1.54825C25.46 1.15225 24.296 0.882252 22.594 0.804252C20.886 0.728252 20.344 0.708252 15.996 0.708252H16ZM14.566 3.59225H16.002C20.274 3.59225 20.78 3.60625 22.466 3.68425C24.026 3.75425 24.874 4.01625 25.438 4.23425C26.184 4.52425 26.718 4.87225 27.278 5.43225C27.838 5.99225 28.184 6.52425 28.474 7.27225C28.694 7.83425 28.954 8.68225 29.024 10.2423C29.102 11.9283 29.118 12.4343 29.118 16.7043C29.118 20.9743 29.102 21.4823 29.024 23.1683C28.954 24.7283 28.692 25.5743 28.474 26.1383C28.2157 26.8321 27.8065 27.4598 27.276 27.9763C26.716 28.5363 26.184 28.8823 25.436 29.1723C24.876 29.3923 24.028 29.6523 22.466 29.7243C20.78 29.8003 20.274 29.8183 16.002 29.8183C11.73 29.8183 11.222 29.8003 9.536 29.7243C7.976 29.6523 7.13 29.3923 6.566 29.1723C5.87167 28.9148 5.2432 28.5063 4.726 27.9763C4.19455 27.4595 3.78466 26.831 3.526 26.1363C3.308 25.5743 3.046 24.7263 2.976 23.1663C2.9 21.4803 2.884 20.9743 2.884 16.7003C2.884 12.4263 2.9 11.9243 2.976 10.2383C3.048 8.67825 3.308 7.83025 3.528 7.26625C3.818 6.52025 4.166 5.98625 4.726 5.42625C5.286 4.86625 5.818 4.52025 6.566 4.23025C7.13 4.01025 7.976 3.75025 9.536 3.67825C11.012 3.61025 11.584 3.59025 14.566 3.58825V3.59225ZM24.542 6.24825C24.2899 6.24825 24.0402 6.29791 23.8072 6.3944C23.5743 6.49089 23.3626 6.63232 23.1844 6.81061C23.0061 6.9889 22.8646 7.20055 22.7682 7.4335C22.6717 7.66644 22.622 7.91611 22.622 8.16825C22.622 8.42039 22.6717 8.67006 22.7682 8.903C22.8646 9.13595 23.0061 9.34761 23.1844 9.5259C23.3626 9.70419 23.5743 9.84561 23.8072 9.9421C24.0402 10.0386 24.2899 10.0883 24.542 10.0883C25.0512 10.0883 25.5396 9.88597 25.8996 9.5259C26.2597 9.16583 26.462 8.67747 26.462 8.16825C26.462 7.65904 26.2597 7.17068 25.8996 6.81061C25.5396 6.45054 25.0512 6.24825 24.542 6.24825ZM16.002 8.49225C14.9121 8.47525 13.8298 8.67522 12.818 9.08053C11.8061 9.48584 10.885 10.0884 10.1083 10.8531C9.33157 11.6178 8.71473 12.5294 8.29368 13.5348C7.87264 14.5402 7.6558 15.6193 7.6558 16.7093C7.6558 17.7992 7.87264 18.8783 8.29368 19.8837C8.71473 20.8891 9.33157 21.8007 10.1083 22.5654C10.885 23.3301 11.8061 23.9327 12.818 24.338C13.8298 24.7433 14.9121 24.9433 16.002 24.9263C18.1591 24.8926 20.2164 24.0121 21.73 22.4748C23.2435 20.9374 24.0918 18.8666 24.0918 16.7093C24.0918 14.5519 23.2435 12.4811 21.73 10.9438C20.2164 9.40643 18.1591 8.52591 16.002 8.49225ZM16.002 11.3743C16.7025 11.3743 17.3961 11.5122 18.0432 11.7803C18.6904 12.0483 19.2784 12.4412 19.7737 12.9365C20.269 13.4319 20.6619 14.0199 20.93 14.667C21.198 15.3142 21.336 16.0078 21.336 16.7083C21.336 17.4087 21.198 18.1023 20.93 18.7495C20.6619 19.3966 20.269 19.9847 19.7737 20.48C19.2784 20.9753 18.6904 21.3682 18.0432 21.6362C17.3961 21.9043 16.7025 22.0423 16.002 22.0423C14.5873 22.0423 13.2306 21.4803 12.2303 20.48C11.23 19.4796 10.668 18.1229 10.668 16.7083C10.668 15.2936 11.23 13.9369 12.2303 12.9365C13.2306 11.9362 14.5873 11.3743 16.002 11.3743Z" fill="#366381"/>
</g>
<defs>
<clipPath id="clip0_1764_14081">
<rect width="32" height="32" fill="white" transform="translate(0 0.708252)"/>
</clipPath>
</defs>
</svg>
