<svg width="49" height="49" viewBox="0 0 49 49" fill="none" xmlns="http://www.w3.org/2000/svg">
<circle cx="24.5137" cy="24.5664" r="24" fill="#2B4D64"/>
<path d="M24.1644 21.2205C24.9189 21.3538 25.5476 21.5498 26.0506 21.8086C26.5535 22.0595 26.9897 22.3732 27.3591 22.7495C28.3178 23.6983 28.9544 24.7452 29.2688 25.89C29.5831 27.027 29.5792 28.1639 29.257 29.3009C28.9426 30.4379 28.3139 31.4769 27.3708 32.4178L23.3393 36.4522C22.4041 37.3853 21.3667 38.0087 20.2272 38.3223C19.0876 38.6438 17.9442 38.6477 16.7968 38.3341C15.6572 38.0204 14.6081 37.3853 13.6493 36.4286C12.6984 35.4799 12.0657 34.437 11.7514 33.3C11.437 32.1552 11.437 31.0142 11.7514 29.8773C12.0736 28.7403 12.7023 27.7013 13.6375 26.7604L17.1033 23.3141C17.0404 23.6983 17.0286 24.1022 17.0679 24.5256C17.1151 24.9412 17.2211 25.3332 17.3862 25.7018L15.0757 28.0071C14.392 28.6893 13.9361 29.4421 13.7082 30.2654C13.4803 31.0887 13.4803 31.916 13.7082 32.7472C13.9361 33.5705 14.392 34.3272 15.0757 35.0172C15.7594 35.6994 16.5138 36.1503 17.339 36.3698C18.1721 36.5972 19.0012 36.5972 19.8264 36.3698C20.6515 36.1424 21.406 35.6876 22.0897 35.0055L25.9445 31.1711C26.6282 30.4889 27.0801 29.7361 27.3001 28.9128C27.528 28.0895 27.528 27.2661 27.3001 26.4428C27.0722 25.6116 26.6164 24.851 25.9327 24.161C25.5476 23.7768 25.0878 23.4709 24.5534 23.2436C24.0269 23.0162 23.3746 22.8711 22.5966 22.8084L24.1644 21.2205ZM23.8697 30.9123C23.1153 30.779 22.4866 30.5869 21.9836 30.336C21.4806 30.0772 21.0445 29.7596 20.6751 29.3833C19.7163 28.4345 19.0798 27.3916 18.7654 26.2546C18.4511 25.1098 18.4511 23.9689 18.7654 22.8319C19.0876 21.6949 19.7203 20.6559 20.6633 19.715L24.6831 15.6924C25.6262 14.7515 26.6675 14.1242 27.807 13.8105C28.9465 13.489 30.0861 13.4851 31.2256 13.7987C32.373 14.1124 33.4261 14.7475 34.3849 15.7042C35.3358 16.653 35.9684 17.6998 36.2828 18.8446C36.5971 19.9816 36.5932 21.1186 36.271 22.2556C35.9566 23.3925 35.3319 24.4315 34.3966 25.3725L30.9309 28.8187C30.9938 28.4345 31.0016 28.0346 30.9545 27.619C30.9152 27.2034 30.813 26.8074 30.648 26.431L32.9585 24.1257C33.6422 23.4435 34.098 22.6907 34.3259 21.8674C34.5538 21.0441 34.5538 20.2207 34.3259 19.3974C34.098 18.5662 33.6422 17.8095 32.9585 17.1274C32.2669 16.4373 31.5085 15.9825 30.6833 15.763C29.8582 15.5356 29.033 15.5356 28.2078 15.763C27.3826 15.9904 26.6243 16.4452 25.9327 17.1274L22.0897 20.9617C21.406 21.6439 20.9502 22.3967 20.7223 23.22C20.4944 24.0434 20.4944 24.8706 20.7223 25.7018C20.9502 26.5251 21.4099 27.2818 22.1015 27.9718C22.4866 28.3561 22.9424 28.6619 23.4689 28.8893C24.0033 29.1167 24.6595 29.2617 25.4376 29.3245L23.8697 30.9123Z" fill="#EBFF6B"/>
</svg>
