<svg width="32" height="32" viewBox="0 0 32 32" fill="none" xmlns="http://www.w3.org/2000/svg">
<path d="M0 16C0 11.7565 1.68571 7.68687 4.68629 4.68629C7.68687 1.68571 11.7565 0 16 0C20.2435 0 24.3131 1.68571 27.3137 4.68629C30.3143 7.68687 32 11.7565 32 16C32 20.2435 30.3143 24.3131 27.3137 27.3137C24.3131 30.3143 20.2435 32 16 32C11.7565 32 7.68687 30.3143 4.68629 27.3137C1.68571 24.3131 0 20.2435 0 16ZM15 2.154C13.66 2.562 12.33 3.794 11.226 5.864C10.9393 6.40133 10.676 6.98267 10.436 7.608C11.846 7.922 13.38 8.122 15 8.182V2.154ZM8.498 7.078C8.78333 6.30867 9.104 5.59 9.46 4.922C9.80809 4.26944 10.2073 3.64549 10.654 3.056C8.95109 3.76113 7.40417 4.79559 6.102 6.1C6.82733 6.46933 7.626 6.794 8.498 7.078ZM7.018 15C7.09 12.86 7.394 10.826 7.89 8.984C6.80689 8.63916 5.75887 8.1925 4.76 7.65C3.16669 9.78849 2.2212 12.3396 2.036 15H7.018ZM9.818 9.518C9.34576 11.3094 9.0774 13.1484 9.018 15H15V10.182C13.18 10.122 11.434 9.892 9.818 9.518ZM17 10.18V15H22.98C22.9213 13.1484 22.6536 11.3095 22.182 9.518C20.566 9.892 18.82 10.118 17 10.18ZM9.02 17C9.09 18.974 9.372 20.828 9.818 22.482C11.5201 22.0956 13.2554 21.8739 15 21.82V17H9.02ZM17 17V21.818C18.82 21.878 20.566 22.108 22.182 22.482C22.628 20.828 22.91 18.974 22.982 17H17ZM10.436 24.392C10.676 25.0173 10.9393 25.5987 11.226 26.136C12.33 28.206 13.662 29.436 15 29.846V23.82C13.38 23.88 11.846 24.078 10.436 24.392ZM10.656 28.944C10.2086 28.3546 9.80873 27.7306 9.46 27.078C9.09242 26.3805 8.77106 25.6596 8.498 24.92C7.67532 25.1846 6.87427 25.5122 6.102 25.9C7.40417 27.2044 8.95308 28.2389 10.656 28.944ZM7.89 23.016C7.37143 21.0503 7.07822 19.032 7.016 17H2.036C2.2212 19.6604 3.16669 22.2115 4.76 24.35C5.7 23.834 6.75 23.386 7.89 23.016ZM21.346 28.944C23.048 28.2392 24.5942 27.2055 25.896 25.902C25.1244 25.5143 24.324 25.1867 23.502 24.922C23.2289 25.6609 22.9075 26.3812 22.54 27.078C22.1919 27.7306 21.7927 28.3545 21.346 28.944ZM17 23.818V29.846C18.34 29.438 19.67 28.206 20.774 26.136C21.062 25.5987 21.3253 25.0173 21.564 24.392C20.0633 24.0626 18.5356 23.8691 17 23.818ZM24.11 23.016C25.25 23.386 26.3 23.834 27.24 24.35C28.8333 22.2115 29.7788 19.6604 29.964 17H24.984C24.9218 19.032 24.6286 21.0503 24.11 23.016ZM29.964 15C29.7788 12.3396 28.8333 9.78849 27.24 7.65C26.3 8.166 25.25 8.614 24.11 8.984C24.606 10.824 24.91 12.86 24.984 15H29.964ZM22.54 4.922C22.8947 5.59133 23.216 6.31 23.504 7.078C24.3253 6.81325 25.125 6.48561 25.896 6.098C24.5941 4.79524 23.0479 3.76218 21.346 3.058C21.782 3.624 22.182 4.252 22.54 4.922ZM21.564 7.608C21.3357 7.01142 21.0719 6.42904 20.774 5.864C19.67 3.794 18.34 2.564 17 2.154V8.18C18.62 8.12 20.154 7.922 21.564 7.608Z" fill="#366381"/>
</svg>
