<svg width="28" height="27" viewBox="0 0 28 27" fill="none" xmlns="http://www.w3.org/2000/svg">
<g id="Group 183901">
<path id="Vector" d="M3.74134 6.52027C5.53148 6.52027 6.98267 5.06907 6.98267 3.27893C6.98267 1.48879 5.53148 0.0375977 3.74134 0.0375977C1.9512 0.0375977 0.5 1.48879 0.5 3.27893C0.5 5.06907 1.9512 6.52027 3.74134 6.52027Z" fill="#1E3746"/>
<path id="Vector_2" d="M10.0422 8.97763V26.9605H15.6257V18.0676C15.6257 15.721 16.0671 13.4485 18.9766 13.4485C21.8461 13.4485 21.8817 16.1314 21.8817 18.2157V26.962H27.4681V17.1002C27.4681 12.256 26.4252 8.5332 20.7632 8.5332C18.0448 8.5332 16.2227 10.025 15.4775 11.4368H15.402V8.97763H10.0422ZM0.943359 8.97763H6.5357V26.9605H0.943359V8.97763Z" fill="#1E3746"/>
</g>
</svg>
