<svg width="26" height="32" viewBox="0 0 26 32" fill="none" xmlns="http://www.w3.org/2000/svg">
<path id="Vector" d="M13.2101 0C6.32414 0 0.765625 5.36 0.765625 12C0.765625 20 13.2101 32 13.2101 32C13.2101 32 25.6545 20 25.6545 12C25.6545 5.36 20.096 0 13.2101 0ZM13.2101 4C15.4104 4 17.5206 4.84285 19.0764 6.34315C20.6323 7.84344 21.5064 9.87827 21.5064 12C21.5064 16.44 17.8145 20 13.2101 20C11.0098 20 8.89956 19.1571 7.3437 17.6569C5.78784 16.1566 4.91377 14.1217 4.91377 12C4.91377 9.87827 5.78784 7.84344 7.3437 6.34315C8.89956 4.84285 11.0098 4 13.2101 4Z" fill="#366381"/>
</svg>
