<svg width="32" height="33" viewBox="0 0 32 33" fill="none" xmlns="http://www.w3.org/2000/svg">
<rect y="0.708252" width="32" height="32" rx="16" fill="#EBFF6B"/>
<path d="M16 7.70825C12.1267 7.70825 9 10.7233 9 14.4583C9 18.9583 16 25.7083 16 25.7083C16 25.7083 23 18.9583 23 14.4583C23 10.7233 19.8733 7.70825 16 7.70825ZM16 9.95825C17.2377 9.95825 18.4247 10.4324 19.2998 11.2763C20.175 12.1202 20.6667 13.2648 20.6667 14.4583C20.6667 16.9558 18.59 18.9583 16 18.9583C14.7623 18.9583 13.5753 18.4841 12.7002 17.6402C11.825 16.7963 11.3333 15.6517 11.3333 14.4583C11.3333 13.2648 11.825 12.1202 12.7002 11.2763C13.5753 10.4324 14.7623 9.95825 16 9.95825Z" fill="#366381"/>
</svg>
