<svg width="32" height="33" viewBox="0 0 32 33" fill="none" xmlns="http://www.w3.org/2000/svg">
<rect y="0.5" width="32" height="32" rx="16" fill="#366381"/>
<path d="M16 7.5C12.1267 7.5 9 10.515 9 14.25C9 18.75 16 25.5 16 25.5C16 25.5 23 18.75 23 14.25C23 10.515 19.8733 7.5 16 7.5ZM16 9.75C17.2377 9.75 18.4247 10.2241 19.2998 11.068C20.175 11.9119 20.6667 13.0565 20.6667 14.25C20.6667 16.7475 18.59 18.75 16 18.75C14.7623 18.75 13.5753 18.2759 12.7002 17.432C11.825 16.5881 11.3333 15.4435 11.3333 14.25C11.3333 13.0565 11.825 11.9119 12.7002 11.068C13.5753 10.2241 14.7623 9.75 16 9.75Z" fill="#EBFF6B"/>
</svg>
