<svg width="48" height="53" viewBox="0 0 48 53" fill="none" xmlns="http://www.w3.org/2000/svg">
<g clip-path="url(#clip0_1858_15594)">
<mask id="mask0_1858_15594" style="mask-type:alpha" maskUnits="userSpaceOnUse" x="0" y="0" width="48" height="53">
<path d="M13.9974 32.9857C13.4006 32.9857 12.7942 32.8513 12.223 32.5681L2.22338 27.6082C0.244247 26.6259 -0.563726 24.226 0.417041 22.2468C1.39941 20.2677 3.79933 19.4597 5.77846 20.4405L15.7781 25.4003C17.7573 26.3827 18.5652 28.7826 17.5845 30.7617C16.8869 32.1697 15.4693 32.9857 13.9974 32.9857Z" fill="url(#paint0_linear_1858_15594)"/>
<path d="M33.9999 52.975C31.7903 52.975 30 51.1846 30 48.9751V8.97643C30 6.7669 31.7903 4.97656 33.9999 4.97656C36.2094 4.97656 37.9997 6.7669 37.9997 8.97643V48.9751C37.9997 51.1846 36.2094 52.975 33.9999 52.975Z" fill="url(#paint1_linear_1858_15594)"/>
<path d="M13.9981 12.9789C13.4013 12.9789 12.7949 12.8445 12.2237 12.5613L2.22408 7.60148C0.244948 6.62071 -0.564625 4.22079 0.417742 2.24166C1.39851 0.262526 3.79843 -0.547047 5.77756 0.43532L15.7772 5.39515C17.7564 6.37752 18.5643 8.77744 17.5836 10.7566C16.886 12.1645 15.4684 12.9805 13.9965 12.9805L13.9981 12.9789Z" fill="url(#paint2_linear_1858_15594)"/>
<path d="M13.9999 32.9776C11.7903 32.9776 10 31.1872 10 28.9777V8.97838C10 6.76886 11.7903 4.97852 13.9999 4.97852C16.2094 4.97852 17.9997 6.76886 17.9997 8.97838V28.9777C17.9997 31.1872 16.2094 32.9776 13.9999 32.9776Z" fill="url(#paint3_linear_1858_15594)"/>
<path d="M4.00147 48.0186C1.79194 48.0186 0 46.2267 0 44.0187V24.0194C0 21.8099 1.79034 20.0195 3.99987 20.0195C6.20939 20.0195 7.99973 21.8099 7.99973 24.0194V44.0187C7.99973 46.2283 6.20939 48.0186 3.99987 48.0186H4.00147Z" fill="url(#paint4_linear_1858_15594)"/>
<path d="M13.9974 52.9778C13.4006 52.9778 12.7942 52.8434 12.223 52.5603L2.22338 47.6004C0.244247 46.6181 -0.563726 44.2181 0.417041 42.239C1.39941 40.2599 3.79933 39.4519 5.77846 40.4327L15.7781 45.3925C17.7573 46.3749 18.5652 48.7748 17.5845 50.7539C16.8869 52.1619 15.4693 52.9778 13.9974 52.9778Z" fill="url(#paint5_linear_1858_15594)"/>
<path d="M23.9999 38.0186C21.7903 38.0186 20 36.2283 20 34.0187V14.0194C20 11.8099 21.7903 10.0195 23.9999 10.0195C26.2094 10.0195 27.9997 11.8099 27.9997 14.0194V34.0187C27.9997 36.2283 26.2094 38.0186 23.9999 38.0186Z" fill="url(#paint6_linear_1858_15594)"/>
<path d="M24.0035 38.0178C22.5364 38.0178 21.1236 37.2082 20.4228 35.8051C19.4357 33.8291 20.2357 31.426 22.2116 30.4388L42.2109 20.4392C44.1869 19.4504 46.59 20.252 47.5771 22.2279C48.5643 24.2039 47.7643 26.607 45.7884 27.5941L25.7891 37.5938C25.2147 37.8802 24.6051 38.0162 24.0035 38.0162V38.0178Z" fill="url(#paint7_linear_1858_15594)"/>
<path d="M33.9999 52.9763C36.2089 52.9763 37.9997 51.1855 37.9997 48.9764C37.9997 46.7674 36.2089 44.9766 33.9999 44.9766C31.7908 44.9766 30 46.7674 30 48.9764C30 51.1855 31.7908 52.9763 33.9999 52.9763Z" fill="black"/>
<path d="M13.9999 52.9782C16.2089 52.9782 17.9997 51.1874 17.9997 48.9784C17.9997 46.7693 16.2089 44.9785 13.9999 44.9785C11.7908 44.9785 10 46.7693 10 48.9784C10 51.1874 11.7908 52.9782 13.9999 52.9782Z" fill="black"/>
<path d="M43.9999 28.0193C46.2089 28.0193 47.9997 26.2285 47.9997 24.0194C47.9997 21.8103 46.2089 20.0195 43.9999 20.0195C41.7908 20.0195 40 21.8103 40 24.0194C40 26.2285 41.7908 28.0193 43.9999 28.0193Z" fill="black"/>
</mask>
<g mask="url(#mask0_1858_15594)">
<rect y="0.0136719" width="47.9984" height="52.9582" fill="#EBFF6B"/>
</g>
</g>
<defs>
<linearGradient id="paint0_linear_1858_15594" x1="0.000156303" y1="21.9434" x2="18.0797" y2="31.0641" gradientUnits="userSpaceOnUse">
<stop stop-opacity="0.2"/>
<stop offset="1"/>
</linearGradient>
<linearGradient id="paint1_linear_1858_15594" x1="33.9999" y1="4.97656" x2="33.9999" y2="52.975" gradientUnits="userSpaceOnUse">
<stop stop-opacity="0.2"/>
<stop offset="1"/>
</linearGradient>
<linearGradient id="paint2_linear_1858_15594" x1="0.000156295" y1="1.93767" x2="18.0796" y2="11.0574" gradientUnits="userSpaceOnUse">
<stop stop-opacity="0.2"/>
<stop offset="1"/>
</linearGradient>
<linearGradient id="paint3_linear_1858_15594" x1="13.9999" y1="4.97852" x2="13.9999" y2="32.9776" gradientUnits="userSpaceOnUse">
<stop stop-opacity="0.2"/>
<stop offset="1"/>
</linearGradient>
<linearGradient id="paint4_linear_1858_15594" x1="3.99987" y1="20.0195" x2="3.99987" y2="48.0186" gradientUnits="userSpaceOnUse">
<stop stop-opacity="0.2"/>
<stop offset="1"/>
</linearGradient>
<linearGradient id="paint5_linear_1858_15594" x1="0.000156303" y1="41.9356" x2="18.0797" y2="51.0563" gradientUnits="userSpaceOnUse">
<stop stop-opacity="0.2"/>
<stop offset="1"/>
</linearGradient>
<linearGradient id="paint6_linear_1858_15594" x1="23.9999" y1="10.0195" x2="23.9999" y2="38.0186" gradientUnits="userSpaceOnUse">
<stop stop-opacity="0.2"/>
<stop offset="1"/>
</linearGradient>
<linearGradient id="paint7_linear_1858_15594" x1="19.9989" y1="35.9363" x2="49.0131" y2="24.8284" gradientUnits="userSpaceOnUse">
<stop stop-opacity="0.2"/>
<stop offset="1"/>
</linearGradient>
<clipPath id="clip0_1858_15594">
<rect width="48" height="52.9598" fill="white" transform="translate(0 0.0195312)"/>
</clipPath>
</defs>
</svg>
