<svg width="38" height="40" viewBox="0 0 38 40" fill="none" xmlns="http://www.w3.org/2000/svg">
<g clip-path="url(#clip0_1858_6179)">
<mask id="mask0_1858_6179" style="mask-type:alpha" maskUnits="userSpaceOnUse" x="0" y="-1" width="38" height="41">
<path d="M11.2913 24.8996C10.8315 24.8996 10.3644 24.7981 9.92436 24.5842L2.22069 20.8381C0.695978 20.0961 0.0735219 18.2835 0.829098 16.7887C1.58591 15.2939 3.43479 14.6836 4.9595 15.4244L12.6632 19.1705C14.1879 19.9124 14.8103 21.7251 14.0548 23.2199C13.5174 24.2833 12.4253 24.8996 11.2913 24.8996Z" fill="url(#paint0_linear_1858_6179)"/>
<path d="M26.6987 39.9978C24.9965 39.9978 23.6172 38.6456 23.6172 36.9767V6.76617C23.6172 5.09734 24.9965 3.74512 26.6987 3.74512C28.4009 3.74512 29.7801 5.09734 29.7801 6.76617V36.9767C29.7801 38.6456 28.4009 39.9978 26.6987 39.9978Z" fill="url(#paint1_linear_1858_6179)"/>
<path d="M11.2918 9.78833C10.8321 9.78833 10.3649 9.68682 9.9249 9.47293L2.22123 5.72682C0.696519 4.98606 0.0728294 3.17342 0.829638 1.6786C1.58521 0.183786 3.4341 -0.427676 4.95881 0.314295L12.6625 4.06041C14.1872 4.80238 14.8096 6.61501 14.0541 8.10983C13.5167 9.17324 12.4246 9.78954 11.2906 9.78954L11.2918 9.78833Z" fill="url(#paint2_linear_1858_6179)"/>
<path d="M11.2924 24.8937C9.5902 24.8937 8.21094 23.5415 8.21094 21.8727V6.76739C8.21094 5.09856 9.5902 3.74634 11.2924 3.74634C12.9946 3.74634 14.3739 5.09856 14.3739 6.76739V21.8727C14.3739 23.5415 12.9946 24.8937 11.2924 24.8937Z" fill="url(#paint3_linear_1858_6179)"/>
<path d="M3.59051 36.2529C1.88831 36.2529 0.507812 34.8994 0.507812 33.2318V18.1265C0.507812 16.4577 1.88708 15.1055 3.58928 15.1055C5.29148 15.1055 6.67075 16.4577 6.67075 18.1265V33.2318C6.67075 34.9006 5.29148 36.2529 3.58928 36.2529H3.59051Z" fill="url(#paint4_linear_1858_6179)"/>
<path d="M11.2913 39.999C10.8315 39.999 10.3644 39.8975 9.92436 39.6836L2.22069 35.9375C0.695978 35.1955 0.0735219 33.3829 0.829098 31.888C1.58591 30.3932 3.43479 29.783 4.9595 30.5237L12.6632 34.2698C14.1879 35.0118 14.8103 36.8244 14.0548 38.3193C13.5174 39.3827 12.4253 39.999 11.2913 39.999Z" fill="url(#paint5_linear_1858_6179)"/>
<path d="M18.9955 28.7001C17.2933 28.7001 15.9141 27.3479 15.9141 25.6791V10.5738C15.9141 8.90496 17.2933 7.55273 18.9955 7.55273C20.6977 7.55273 22.077 8.90496 22.077 10.5738V25.6791C22.077 27.3479 20.6977 28.7001 18.9955 28.7001Z" fill="url(#paint6_linear_1858_6179)"/>
<path d="M18.9984 28.7001C17.8681 28.7001 16.7797 28.0887 16.2398 27.0289C15.4793 25.5365 16.0956 23.7214 17.6179 22.9758L33.0252 15.4232C34.5474 14.6764 36.3988 15.2818 37.1593 16.7742C37.9198 18.2666 37.3035 20.0816 35.7813 20.8272L20.3739 28.3799C19.9314 28.5962 19.4618 28.6989 18.9984 28.6989V28.7001Z" fill="url(#paint7_linear_1858_6179)"/>
<path d="M26.6987 39.9977C28.4005 39.9977 29.7801 38.6451 29.7801 36.9766C29.7801 35.3081 28.4005 33.9556 26.6987 33.9556C24.9968 33.9556 23.6172 35.3081 23.6172 36.9766C23.6172 38.6451 24.9968 39.9977 26.6987 39.9977Z" fill="black"/>
<path d="M11.2924 39.9989C12.9943 39.9989 14.3739 38.6463 14.3739 36.9778C14.3739 35.3094 12.9943 33.9568 11.2924 33.9568C9.59056 33.9568 8.21094 35.3094 8.21094 36.9778C8.21094 38.6463 9.59056 39.9989 11.2924 39.9989Z" fill="black"/>
<path d="M34.4018 21.1476C36.1036 21.1476 37.4833 19.795 37.4833 18.1265C37.4833 16.458 36.1036 15.1055 34.4018 15.1055C32.6999 15.1055 31.3203 16.458 31.3203 18.1265C31.3203 19.795 32.6999 21.1476 34.4018 21.1476Z" fill="black"/>
</mask>
<g mask="url(#mask0_1858_6179)">
<rect x="0.507812" y="-0.00488281" width="36.9776" height="39.9988" fill="#366381"/>
</g>
</g>
<defs>
<linearGradient id="paint0_linear_1858_6179" x1="0.507933" y1="16.5595" x2="14.3231" y2="23.6683" gradientUnits="userSpaceOnUse">
<stop stop-opacity="0.2"/>
<stop offset="1"/>
</linearGradient>
<linearGradient id="paint1_linear_1858_6179" x1="26.6987" y1="3.74512" x2="26.6987" y2="39.9978" gradientUnits="userSpaceOnUse">
<stop stop-opacity="0.2"/>
<stop offset="1"/>
</linearGradient>
<linearGradient id="paint2_linear_1858_6179" x1="0.507933" y1="1.449" x2="14.323" y2="8.55701" gradientUnits="userSpaceOnUse">
<stop stop-opacity="0.2"/>
<stop offset="1"/>
</linearGradient>
<linearGradient id="paint3_linear_1858_6179" x1="11.2924" y1="3.74634" x2="11.2924" y2="24.8937" gradientUnits="userSpaceOnUse">
<stop stop-opacity="0.2"/>
<stop offset="1"/>
</linearGradient>
<linearGradient id="paint4_linear_1858_6179" x1="3.58928" y1="15.1055" x2="3.58928" y2="36.2529" gradientUnits="userSpaceOnUse">
<stop stop-opacity="0.2"/>
<stop offset="1"/>
</linearGradient>
<linearGradient id="paint5_linear_1858_6179" x1="0.507933" y1="31.6589" x2="14.3231" y2="38.7677" gradientUnits="userSpaceOnUse">
<stop stop-opacity="0.2"/>
<stop offset="1"/>
</linearGradient>
<linearGradient id="paint6_linear_1858_6179" x1="18.9955" y1="7.55273" x2="18.9955" y2="28.7001" gradientUnits="userSpaceOnUse">
<stop stop-opacity="0.2"/>
<stop offset="1"/>
</linearGradient>
<linearGradient id="paint7_linear_1858_6179" x1="15.9132" y1="27.128" x2="38.1507" y2="18.4443" gradientUnits="userSpaceOnUse">
<stop stop-opacity="0.2"/>
<stop offset="1"/>
</linearGradient>
<clipPath id="clip0_1858_6179">
<rect width="36.9789" height="40" fill="white" transform="translate(0.507812)"/>
</clipPath>
</defs>
</svg>
