<svg width="38" height="40" viewBox="0 0 38 40" fill="none" xmlns="http://www.w3.org/2000/svg">
<g id="Logo" clip-path="url(#clip0_1477_95543)">
<mask id="mask0_1477_95543" style="mask-type:alpha" maskUnits="userSpaceOnUse" x="0" y="-1" width="38" height="41">
<g id="logo_gradient">
<path id="Vector" d="M11.2962 24.8996C10.8364 24.8996 10.3693 24.7981 9.92924 24.5842L2.22557 20.8381C0.700861 20.0961 0.0784047 18.2835 0.833981 16.7887C1.59079 15.2939 3.43967 14.6836 4.96438 15.4244L12.6681 19.1705C14.1928 19.9124 14.8152 21.7251 14.0596 23.2199C13.5222 24.2833 12.4302 24.8996 11.2962 24.8996Z" fill="url(#paint0_linear_1477_95543)"/>
<path id="Vector_2" d="M26.7055 39.9968C25.0033 39.9968 23.624 38.6446 23.624 36.9758V6.7652C23.624 5.09637 25.0033 3.74414 26.7055 3.74414C28.4077 3.74414 29.787 5.09637 29.787 6.7652V36.9758C29.787 38.6446 28.4077 39.9968 26.7055 39.9968Z" fill="url(#paint1_linear_1477_95543)"/>
<path id="Vector_3" d="M11.2957 9.7876C10.836 9.7876 10.3688 9.68609 9.92881 9.4722L2.22514 5.72609C0.700425 4.98533 0.0767356 3.17269 0.833544 1.67787C1.58912 0.183053 3.438 -0.428408 4.96271 0.313563L12.6664 4.05967C14.1911 4.80165 14.8135 6.61428 14.058 8.1091C13.5206 9.17251 12.4285 9.78881 11.2945 9.78881L11.2957 9.7876Z" fill="url(#paint2_linear_1477_95543)"/>
<path id="Vector_4" d="M11.2988 24.8935C9.59655 24.8935 8.21729 23.5413 8.21729 21.8724V6.76715C8.21729 5.09832 9.59655 3.74609 11.2988 3.74609C13.001 3.74609 14.3802 5.09832 14.3802 6.76715V21.8724C14.3802 23.5413 13.001 24.8935 11.2988 24.8935Z" fill="url(#paint3_linear_1477_95543)"/>
<path id="Vector_5" d="M3.59442 36.2509C1.89222 36.2509 0.511719 34.8975 0.511719 33.2299V18.1246C0.511719 16.4557 1.89098 15.1035 3.59319 15.1035C5.29539 15.1035 6.67466 16.4557 6.67466 18.1246V33.2299C6.67466 34.8987 5.29539 36.2509 3.59319 36.2509H3.59442Z" fill="url(#paint4_linear_1477_95543)"/>
<path id="Vector_6" d="M11.2962 39.9992C10.8364 39.9992 10.3693 39.8977 9.92924 39.6838L2.22557 35.9377C0.700861 35.1957 0.0784047 33.3831 0.833981 31.8883C1.59079 30.3935 3.43967 29.7832 4.96438 30.524L12.6681 34.2701C14.1928 35.0121 14.8152 36.8247 14.0596 38.3195C13.5222 39.3829 12.4302 39.9992 11.2962 39.9992Z" fill="url(#paint5_linear_1477_95543)"/>
<path id="Vector_7" d="M19.0024 28.6982C17.3002 28.6982 15.9209 27.346 15.9209 25.6771V10.5718C15.9209 8.90301 17.3002 7.55078 19.0024 7.55078C20.7046 7.55078 22.0838 8.90301 22.0838 10.5718V25.6771C22.0838 27.346 20.7046 28.6982 19.0024 28.6982Z" fill="url(#paint6_linear_1477_95543)"/>
<path id="Vector_8" d="M19.0047 28.7004C17.8744 28.7004 16.786 28.0889 16.2462 27.0291C15.4857 25.5367 16.102 23.7217 17.6242 22.9761L33.0315 15.4234C34.5538 14.6766 36.4051 15.282 37.1656 16.7744C37.9261 18.2668 37.3099 20.0819 35.7876 20.8275L20.3803 28.3801C19.9378 28.5964 19.4682 28.6992 19.0047 28.6992V28.7004Z" fill="url(#paint7_linear_1477_95543)"/>
<path id="Vector_9" d="M26.7055 39.9952C28.4073 39.9952 29.787 38.6427 29.787 36.9742C29.787 35.3057 28.4073 33.9531 26.7055 33.9531C25.0036 33.9531 23.624 35.3057 23.624 36.9742C23.624 38.6427 25.0036 39.9952 26.7055 39.9952Z" fill="black"/>
<path id="Vector_10" d="M11.2988 39.9972C13.0006 39.9972 14.3802 38.6446 14.3802 36.9761C14.3802 35.3077 13.0006 33.9551 11.2988 33.9551C9.59691 33.9551 8.21729 35.3077 8.21729 36.9761C8.21729 38.6446 9.59691 39.9972 11.2988 39.9972Z" fill="black"/>
<path id="Vector_11" d="M34.4096 21.1456C36.1114 21.1456 37.4911 19.7931 37.4911 18.1246C37.4911 16.4561 36.1114 15.1035 34.4096 15.1035C32.7077 15.1035 31.3281 16.4561 31.3281 18.1246C31.3281 19.7931 32.7077 21.1456 34.4096 21.1456Z" fill="black"/>
</g>
</mask>
<g mask="url(#mask0_1477_95543)">
<path id="colour" d="M0.511719 -0.00390625H37.4893V39.9949H0.511719V-0.00390625Z" fill="#FEFFF8"/>
</g>
</g>
<defs>
<linearGradient id="paint0_linear_1477_95543" x1="0.512816" y1="16.5595" x2="14.328" y2="23.6683" gradientUnits="userSpaceOnUse">
<stop stop-opacity="0.3"/>
<stop offset="1"/>
</linearGradient>
<linearGradient id="paint1_linear_1477_95543" x1="26.7055" y1="3.74414" x2="26.7055" y2="39.9968" gradientUnits="userSpaceOnUse">
<stop stop-opacity="0.3"/>
<stop offset="1"/>
</linearGradient>
<linearGradient id="paint2_linear_1477_95543" x1="0.511839" y1="1.44827" x2="14.3269" y2="8.55628" gradientUnits="userSpaceOnUse">
<stop stop-opacity="0.3"/>
<stop offset="1"/>
</linearGradient>
<linearGradient id="paint3_linear_1477_95543" x1="11.2988" y1="3.74609" x2="11.2988" y2="24.8935" gradientUnits="userSpaceOnUse">
<stop stop-opacity="0.3"/>
<stop offset="1"/>
</linearGradient>
<linearGradient id="paint4_linear_1477_95543" x1="3.59319" y1="15.1035" x2="3.59319" y2="36.2509" gradientUnits="userSpaceOnUse">
<stop stop-opacity="0.3"/>
<stop offset="1"/>
</linearGradient>
<linearGradient id="paint5_linear_1477_95543" x1="0.512816" y1="31.6591" x2="14.328" y2="38.7679" gradientUnits="userSpaceOnUse">
<stop stop-opacity="0.3"/>
<stop offset="1"/>
</linearGradient>
<linearGradient id="paint6_linear_1477_95543" x1="19.0024" y1="7.55078" x2="19.0024" y2="28.6982" gradientUnits="userSpaceOnUse">
<stop stop-opacity="0.3"/>
<stop offset="1"/>
</linearGradient>
<linearGradient id="paint7_linear_1477_95543" x1="15.9195" y1="27.1282" x2="38.1571" y2="18.4445" gradientUnits="userSpaceOnUse">
<stop stop-opacity="0.3"/>
<stop offset="1"/>
</linearGradient>
<clipPath id="clip0_1477_95543">
<rect width="36.9789" height="40" fill="white" transform="translate(0.510742)"/>
</clipPath>
</defs>
</svg>
