<svg width="30" height="40" viewBox="0 0 30 40" fill="none" xmlns="http://www.w3.org/2000/svg">
<mask id="mask0_1473_41514" style="mask-type:alpha" maskUnits="userSpaceOnUse" x="0" y="0" width="7" height="40">
<path d="M0.625 37.2414C0.625 38.7649 1.8842 40 3.4375 40C4.9908 40 6.25 38.7649 6.25 37.2414L6.25 2.75862C6.25 1.23508 4.9908 0 3.4375 0C1.8842 0 0.625 1.23508 0.625 2.75862L0.625 37.2414Z" fill="black"/>
<path d="M3.4375 5.51919C4.9908 5.51919 6.25 4.28412 6.25 2.76057C6.25 1.23703 4.9908 0.00195312 3.4375 0.00195312C1.8842 0.00195312 0.625 1.23703 0.625 2.76057C0.625 4.28412 1.8842 5.51919 3.4375 5.51919Z" fill="black"/>
</mask>
<g mask="url(#mask0_1473_41514)">
<rect x="0.625" width="5.625" height="40" fill="#366381"/>
</g>
<mask id="mask1_1473_41514" style="mask-type:alpha" maskUnits="userSpaceOnUse" x="8" y="0" width="6" height="40">
<path d="M13.9585 2.75862C13.9585 1.23508 12.6993 0 11.146 0C9.5927 0 8.3335 1.23508 8.3335 2.75862L8.3335 37.2414C8.3335 38.7649 9.5927 40 11.146 40C12.6993 40 13.9585 38.7649 13.9585 37.2414L13.9585 2.75862Z" fill="black"/>
<path d="M11.146 34.4808C9.5927 34.4808 8.3335 35.7159 8.3335 37.2394C8.3335 38.763 9.5927 39.998 11.146 39.998C12.6993 39.998 13.9585 38.763 13.9585 37.2394C13.9585 35.7159 12.6993 34.4808 11.146 34.4808Z" fill="black"/>
</mask>
<g mask="url(#mask1_1473_41514)">
<rect x="13.9585" y="40" width="5.625" height="40" transform="rotate(-180 13.9585 40)" fill="#366381"/>
</g>
<mask id="mask2_1473_41514" style="mask-type:alpha" maskUnits="userSpaceOnUse" x="16" y="0" width="6" height="40">
<path d="M16.0415 37.2414C16.0415 38.7649 17.3007 40 18.854 40C20.4073 40 21.6665 38.7649 21.6665 37.2414L21.6665 2.75862C21.6665 1.23508 20.4073 0 18.854 0C17.3007 0 16.0415 1.23508 16.0415 2.75862L16.0415 37.2414Z" fill="black"/>
<path d="M18.854 5.51919C20.4073 5.51919 21.6665 4.28412 21.6665 2.76057C21.6665 1.23703 20.4073 0.00195312 18.854 0.00195312C17.3007 0.00195312 16.0415 1.23703 16.0415 2.76057C16.0415 4.28412 17.3007 5.51919 18.854 5.51919Z" fill="black"/>
</mask>
<g mask="url(#mask2_1473_41514)">
<rect x="16.0415" width="5.625" height="40" fill="#366381"/>
</g>
<mask id="mask3_1473_41514" style="mask-type:alpha" maskUnits="userSpaceOnUse" x="23" y="0" width="7" height="40">
<path d="M29.375 2.75862C29.375 1.23508 28.1158 0 26.5625 0C25.0092 0 23.75 1.23508 23.75 2.75862L23.75 37.2414C23.75 38.7649 25.0092 40 26.5625 40C28.1158 40 29.375 38.7649 29.375 37.2414L29.375 2.75862Z" fill="black"/>
<path d="M26.5625 34.4808C25.0092 34.4808 23.75 35.7159 23.75 37.2394C23.75 38.763 25.0092 39.998 26.5625 39.998C28.1158 39.998 29.375 38.763 29.375 37.2394C29.375 35.7159 28.1158 34.4808 26.5625 34.4808Z" fill="black"/>
</mask>
<g mask="url(#mask3_1473_41514)">
<rect x="29.375" y="40" width="5.625" height="40" transform="rotate(-180 29.375 40)" fill="#366381"/>
</g>
</svg>
