<svg width="72" height="73" viewBox="0 0 72 73" fill="none" xmlns="http://www.w3.org/2000/svg">
<rect y="0.699951" width="72" height="72" rx="36" fill="#EBFF6B"/>
<path d="M36 40.1068L24.076 52.0307C23.6299 52.4769 23.0621 52.7 22.3726 52.7C21.6831 52.7 21.1153 52.4769 20.6692 52.0307C20.2231 51.5846 20 51.0168 20 50.3273C20 49.6378 20.2231 49.07 20.6692 48.6239L32.5932 36.7L20.6692 24.776C20.2231 24.3299 20 23.7621 20 23.0726C20 22.3831 20.2231 21.8153 20.6692 21.3692C21.1153 20.923 21.6831 20.7 22.3726 20.7C23.0621 20.7 23.6299 20.923 24.076 21.3692L36 33.2931L47.924 21.3692C48.3701 20.923 48.9379 20.7 49.6274 20.7C50.3169 20.7 50.8847 20.923 51.3308 21.3692C51.7769 21.8153 52 22.3831 52 23.0726C52 23.7621 51.7769 24.3299 51.3308 24.776L39.4068 36.7L51.3308 48.6239C51.7769 49.07 52 49.6378 52 50.3273C52 51.0168 51.7769 51.5846 51.3308 52.0307C50.8847 52.4769 50.3169 52.7 49.6274 52.7C48.9379 52.7 48.3701 52.4769 47.924 52.0307L36 40.1068Z" fill="#366381"/>
</svg>
