<svg width="18" height="16" viewBox="0 0 18 16" fill="none" xmlns="http://www.w3.org/2000/svg">
<path id="Vector" fill-rule="evenodd" clip-rule="evenodd" d="M0 8C0 7.69695 0.118513 7.40631 0.329468 7.19202C0.540423 6.97773 0.826539 6.85735 1.12487 6.85735H14.1577L9.32746 1.95309C9.22287 1.84685 9.13991 1.72073 9.08331 1.58192C9.02671 1.44311 8.99757 1.29434 8.99757 1.14409C8.99757 0.993849 9.02671 0.845075 9.08331 0.706267C9.13991 0.567459 9.22287 0.441336 9.32746 0.335096C9.43204 0.228858 9.55621 0.144584 9.69285 0.0870876C9.8295 0.0295916 9.97596 0 10.1239 0C10.2718 0 10.4182 0.0295916 10.5549 0.0870876C10.6915 0.144584 10.8157 0.228858 10.9203 0.335096L17.6695 7.191C17.7743 7.29714 17.8574 7.42324 17.9141 7.56206C17.9708 7.70088 18 7.8497 18 8C18 8.1503 17.9708 8.29912 17.9141 8.43794C17.8574 8.57676 17.7743 8.70285 17.6695 8.809L10.9203 15.6649C10.8157 15.7711 10.6915 15.8554 10.5549 15.9129C10.4182 15.9704 10.2718 16 10.1239 16C9.97596 16 9.8295 15.9704 9.69285 15.9129C9.55621 15.8554 9.43204 15.7711 9.32746 15.6649C9.11624 15.4503 8.99757 15.1593 8.99757 14.8559C8.99757 14.7057 9.02671 14.5569 9.08331 14.4181C9.13991 14.2793 9.22287 14.1531 9.32746 14.0469L14.1577 9.14265H1.12487C0.826539 9.14265 0.540423 9.02226 0.329468 8.80798C0.118513 8.59369 0 8.30305 0 8Z" fill="#366381"/>
</svg>
