<svg width="32" height="32" viewBox="0 0 32 32" fill="none" xmlns="http://www.w3.org/2000/svg">
<g id="logos">
<path id="Vector" d="M27.0005 2.00014C26.2049 2.00014 25.4418 2.31621 24.8792 2.87882C24.3166 3.44143 24.0005 4.20449 24.0005 5.00014C24.0005 5.79579 24.3166 6.55885 24.8792 7.12146C25.4418 7.68407 26.2049 8.00014 27.0005 8.00014C27.7962 8.00014 28.5592 7.68407 29.1219 7.12146C29.6845 6.55885 30.0005 5.79579 30.0005 5.00014C30.0005 4.20449 29.6845 3.44143 29.1219 2.87882C28.5592 2.31621 27.7962 2.00014 27.0005 2.00014ZM22.0005 5.00014C22.0004 3.82701 22.4127 2.69117 23.1655 1.79136C23.9182 0.891553 24.9633 0.285067 26.1181 0.078014C27.2728 -0.129039 28.4635 0.0765265 29.482 0.658745C30.5005 1.24096 31.2818 2.16276 31.6892 3.26286C32.0967 4.36295 32.1044 5.5713 31.7109 6.67649C31.3175 7.78167 30.5479 8.71332 29.5369 9.30843C28.5259 9.90353 27.3379 10.1242 26.1806 9.93184C25.0234 9.73948 23.9706 9.14631 23.2065 8.25614L9.77053 14.4961C10.0793 15.475 10.0793 16.5252 9.77053 17.5041L23.2065 23.7441C24.0142 22.8048 25.1419 22.1988 26.3709 22.0434C27.6 21.8881 28.8429 22.1946 29.8589 22.9035C30.8749 23.6124 31.5915 24.6732 31.8699 25.8804C32.1483 27.0875 31.9686 28.3551 31.3657 29.4373C30.7628 30.5195 29.7796 31.3394 28.6067 31.7381C27.4337 32.1367 26.1546 32.0857 25.0171 31.595C23.8796 31.1042 22.9648 30.2087 22.45 29.0819C21.9351 27.9551 21.8569 26.6773 22.2305 25.4961L8.79453 19.2561C8.1294 20.0313 7.24283 20.5841 6.25409 20.8403C5.26534 21.0965 4.22186 21.0437 3.26401 20.6891C2.30615 20.3345 1.47988 19.695 0.896345 18.8567C0.312808 18.0184 0 17.0215 0 16.0001C0 14.9787 0.312808 13.9819 0.896345 13.1436C1.47988 12.3053 2.30615 11.6658 3.26401 11.3112C4.22186 10.9566 5.26534 10.9038 6.25409 11.16C7.24283 11.4162 8.1294 11.969 8.79453 12.7441L22.2305 6.50414C22.0776 6.01748 22 5.51027 22.0005 5.00014ZM5.00053 13.0001C4.20488 13.0001 3.44182 13.3162 2.87921 13.8788C2.3166 14.4414 2.00053 15.2045 2.00053 16.0001C2.00053 16.7958 2.3166 17.5589 2.87921 18.1215C3.44182 18.6841 4.20488 19.0001 5.00053 19.0001C5.79618 19.0001 6.55924 18.6841 7.12185 18.1215C7.68446 17.5589 8.00053 16.7958 8.00053 16.0001C8.00053 15.2045 7.68446 14.4414 7.12185 13.8788C6.55924 13.3162 5.79618 13.0001 5.00053 13.0001ZM27.0005 24.0001C26.2049 24.0001 25.4418 24.3162 24.8792 24.8788C24.3166 25.4414 24.0005 26.2045 24.0005 27.0001C24.0005 27.7958 24.3166 28.5589 24.8792 29.1215C25.4418 29.6841 26.2049 30.0001 27.0005 30.0001C27.7962 30.0001 28.5592 29.6841 29.1219 29.1215C29.6845 28.5589 30.0005 27.7958 30.0005 27.0001C30.0005 26.2045 29.6845 25.4414 29.1219 24.8788C28.5592 24.3162 27.7962 24.0001 27.0005 24.0001Z" fill="#366381"/>
</g>
</svg>
