<svg width="29" height="29" viewBox="0 0 29 29" fill="none" xmlns="http://www.w3.org/2000/svg">
<g id="share-svgrepo-com 2" clip-path="url(#clip0_972_3309)">
<path id="Vector" d="M21.7843 17.5319C20.1516 17.5319 18.69 18.2767 17.7201 19.4441L11.4114 15.8623C11.6076 15.3102 11.7155 14.7166 11.7155 14.098C11.7155 13.4795 11.6076 12.8859 11.4114 12.3339L17.7196 8.75117C18.6893 9.91902 20.1512 10.6641 21.784 10.6641C24.6965 10.6641 27.0659 8.29373 27.0659 5.38007C27.0662 2.46726 24.6967 0.0976562 21.7843 0.0976562C18.8715 0.0976562 16.5017 2.46726 16.5017 5.37994C16.5017 5.99856 16.6094 6.59229 16.8057 7.14448L10.4972 10.7273C9.52749 9.56005 8.06598 8.81549 6.43366 8.81549C3.52049 8.81549 1.15039 11.1851 1.15039 14.0979C1.15039 17.0106 3.52049 19.3802 6.43366 19.3802C8.06598 19.3802 9.52737 18.6356 10.4971 17.4685L16.8057 21.0505C16.6094 21.6027 16.5016 22.1965 16.5016 22.8152C16.5016 25.7279 18.8713 28.0975 21.7841 28.0975C24.6966 28.0975 27.0661 25.7278 27.0661 22.8152C27.0662 19.9021 24.6967 17.5319 21.7843 17.5319ZM21.7843 1.94612C23.6775 1.94612 25.2177 3.4865 25.2177 5.37994C25.2177 7.27437 23.6775 8.81549 21.7843 8.81549C19.8907 8.81549 18.3502 7.27437 18.3502 5.37994C18.3502 3.4865 19.8907 1.94612 21.7843 1.94612ZM6.43379 17.5319C4.53985 17.5319 2.99898 15.9913 2.99898 14.098C2.99898 12.2045 4.53985 10.6641 6.43379 10.6641C8.32698 10.6641 9.86712 12.2045 9.86712 14.098C9.86712 15.9913 8.32686 17.5319 6.43379 17.5319ZM21.7843 26.2492C19.8907 26.2492 18.3502 24.7087 18.3502 22.8154C18.3502 20.9213 19.8907 19.3803 21.7843 19.3803C23.6775 19.3803 25.2177 20.9213 25.2177 22.8154C25.2177 24.7087 23.6775 26.2492 21.7843 26.2492Z" fill="#11212B"/>
</g>
<defs>
<clipPath id="clip0_972_3309">
<rect width="28" height="28" fill="white" transform="translate(0.107422 0.0976562)"/>
</clipPath>
</defs>
</svg>
