<svg width="32" height="33" viewBox="0 0 32 33" fill="none" xmlns="http://www.w3.org/2000/svg">
<g id="logos" clip-path="url(#clip0_1858_15589)">
<g id="Group">
<g id="Group_2">
<path id="Vector" d="M23.6931 22.4459C22.7013 22.4459 21.7774 22.7343 20.9984 23.2301L13.1361 17.741C13.2623 17.3004 13.3313 16.8356 13.3313 16.3545C13.3313 15.8734 13.2623 15.4086 13.1361 14.968L20.7861 9.62706C21.607 10.2101 22.6095 10.5541 23.6931 10.5541C26.4694 10.5541 28.7201 8.30338 28.7201 5.52707C28.7201 2.75077 26.4694 0.5 23.6931 0.5C20.9168 0.5 18.6661 2.7507 18.6661 5.527C18.6661 5.89366 18.7065 6.25077 18.781 6.5951L10.9367 12.0717C10.171 11.6001 9.26967 11.3275 8.30435 11.3275C5.52804 11.3275 3.27734 13.5782 3.27734 16.3545C3.27734 19.1308 5.52797 21.3815 8.30435 21.3815C9.2696 21.3815 10.171 21.1089 10.9367 20.6373L18.8415 26.1562C18.7279 26.5761 18.6661 27.0172 18.6661 27.473C18.6661 30.2493 20.9168 32.5 23.6931 32.5C26.4694 32.5 28.7201 30.2493 28.7201 27.473C28.7201 24.6967 26.4694 22.4459 23.6931 22.4459Z" fill="#366381"/>
</g>
</g>
</g>
<defs>
<clipPath id="clip0_1858_15589">
<rect width="32" height="32" fill="white" transform="translate(0 0.5)"/>
</clipPath>
</defs>
</svg>
