<svg width="29" height="28" viewBox="0 0 29 28" fill="none" xmlns="http://www.w3.org/2000/svg">
<g id="share-svgrepo-com 2" clip-path="url(#clip0_972_1644)">
<path id="Vector" d="M22.2706 17.4322C20.6379 17.4322 19.1763 18.177 18.2065 19.3445L11.8978 15.7627C12.094 15.2106 12.2018 14.617 12.2018 13.9984C12.2018 13.3799 12.094 12.7863 11.8978 12.2342L18.206 8.65156C19.1757 9.81942 20.6375 10.5645 22.2704 10.5645C25.1828 10.5645 27.5523 8.19412 27.5523 5.28046C27.5525 2.36765 25.183 -0.00195312 22.2706 -0.00195312C19.3578 -0.00195312 16.9881 2.36765 16.9881 5.28033C16.9881 5.89895 17.0958 6.49268 17.2921 7.04487L10.9835 10.6277C10.0138 9.46044 8.55231 8.71588 6.91999 8.71588C4.00682 8.71588 1.63672 11.0855 1.63672 13.9983C1.63672 16.911 4.00682 19.2806 6.91999 19.2806C8.55231 19.2806 10.0137 18.536 10.9834 17.3689L17.2921 20.9508C17.0958 21.503 16.9879 22.0969 16.9879 22.7156C16.9879 25.6283 19.3577 27.9979 22.2705 27.9979C25.1829 27.9979 27.5524 25.6282 27.5524 22.7156C27.5525 19.8025 25.183 17.4322 22.2706 17.4322ZM22.2706 1.84651C24.1638 1.84651 25.7041 3.38689 25.7041 5.28033C25.7041 7.17476 24.1638 8.71588 22.2706 8.71588C20.377 8.71588 18.8365 7.17476 18.8365 5.28033C18.8365 3.38689 20.377 1.84651 22.2706 1.84651ZM6.92011 17.4322C5.02618 17.4322 3.4853 15.8917 3.4853 13.9984C3.4853 12.1049 5.02618 10.5645 6.92011 10.5645C8.81331 10.5645 10.3534 12.1049 10.3534 13.9984C10.3534 15.8917 8.81319 17.4322 6.92011 17.4322ZM22.2706 26.1496C20.377 26.1496 18.8365 24.6091 18.8365 22.7158C18.8365 20.8217 20.377 19.2807 22.2706 19.2807C24.1638 19.2807 25.7041 20.8217 25.7041 22.7158C25.7041 24.6091 24.1638 26.1496 22.2706 26.1496Z" fill="#EBFF6B"/>
</g>
<defs>
<clipPath id="clip0_972_1644">
<rect width="28" height="28" fill="white" transform="translate(0.59375 -0.00195312)"/>
</clipPath>
</defs>
</svg>
