<svg width="26" height="33" viewBox="0 0 26 33" fill="none" xmlns="http://www.w3.org/2000/svg">
<g id="Group">
<g id="Group_2">
<path id="Vector" d="M20.6931 22.4459C19.7013 22.4459 18.7774 22.7343 17.9984 23.2301L10.1361 17.741C10.2623 17.3004 10.3313 16.8356 10.3313 16.3545C10.3313 15.8734 10.2623 15.4086 10.1361 14.968L17.7861 9.62706C18.607 10.2101 19.6095 10.5541 20.6931 10.5541C23.4694 10.5541 25.7201 8.30338 25.7201 5.52707C25.7201 2.75077 23.4694 0.5 20.6931 0.5C17.9168 0.5 15.6661 2.7507 15.6661 5.527C15.6661 5.89366 15.7065 6.25077 15.781 6.5951L7.93671 12.0717C7.17101 11.6001 6.26967 11.3275 5.30435 11.3275C2.52804 11.3275 0.277344 13.5782 0.277344 16.3545C0.277344 19.1308 2.52797 21.3815 5.30435 21.3815C6.2696 21.3815 7.17101 21.1089 7.93671 20.6373L15.8415 26.1562C15.7279 26.5761 15.6661 27.0172 15.6661 27.473C15.6661 30.2493 17.9168 32.5 20.6931 32.5C23.4694 32.5 25.7201 30.2493 25.7201 27.473C25.7201 24.6967 23.4694 22.4459 20.6931 22.4459Z" fill="#EBFF6B"/>
</g>
</g>
</svg>
